<svg xmlns="http://www.w3.org/2000/svg" viewBox="0 0 400 400"><path fill="#E10098" d="M57 303l-14-9L203 17l15 8z"/><path fill="#E10098" d="M40 272h320v17H40z"/><path fill="#E10098" d="M206 374L46 282l8-15 161 93zm140-241L185 40l9-14 160 93z"/><path fill="#E10098" d="M54 133l-8-14 160-93 9 14z"/><path fill="#E10098" d="M343 303L182 25l15-8 160 277zM53 108h16v185H53zm278 0h16v185h-16z"/><path fill="#E10098" d="M204 367l-8-13 140-80 7 13z"/><path fill="#E10098" d="M370 298a35 35 0 1 1-61-35 35 35 0 0 1 61 35M91 137a35 35 0 1 1-61-35 35 35 0 0 1 61 35M31 298a35 35 0 1 1 60-35 35 35 0 0 1-60 35m278-161a35 35 0 1 1 61-35 35 35 0 0 1-61 35M200 396a35 35 0 1 1 0-70 35 35 0 0 1 0 70m0-322a35 35 0 1 1 0-70 35 35 0 0 1 0 70"/></svg>
