<?xml version="1.0" standalone="no"?>
<!DOCTYPE svg PUBLIC "-//W3C//DTD SVG 20010904//EN"
 "http://www.w3.org/TR/2001/REC-SVG-20010904/DTD/svg10.dtd">
<svg version="1.0" xmlns="http://www.w3.org/2000/svg"
 width="1100.000000pt" height="1100.000000pt" viewBox="0 0 1100.000000 1100.000000"
 preserveAspectRatio="xMidYMid meet">
<metadata>
Created by potrace 1.11, written by Peter Selinger 2001-2013
</metadata>
<g transform="translate(0.000000,1100.000000) scale(0.100000,-0.100000)"
fill="#000000" stroke="none">
<path d="M6465 10030 c-125 -28 -227 -168 -220 -300 4 -59 16 -96 200 -615 31
-88 79 -221 105 -296 52 -148 81 -215 115 -269 12 -19 28 -53 35 -75 7 -22 52
-151 101 -287 49 -136 105 -301 125 -365 38 -127 139 -519 149 -580 3 -21 12
-65 19 -98 8 -33 17 -77 20 -97 3 -21 10 -58 16 -82 5 -25 12 -66 15 -93 3
-26 8 -55 10 -63 6 -20 10 -48 35 -215 27 -183 28 -190 35 -260 3 -33 8 -69
10 -81 1 -11 6 -52 10 -90 4 -38 9 -80 11 -94 23 -178 23 -510 0 -710 -3 -19
-7 -59 -10 -88 -4 -30 -11 -84 -16 -120 -6 -37 -13 -83 -16 -102 -13 -100 -82
-399 -116 -510 -35 -115 -79 -245 -87 -260 -5 -9 -12 -30 -16 -48 -3 -18 -11
-32 -16 -32 -6 0 -8 -4 -4 -9 3 -5 1 -12 -5 -16 -6 -4 -8 -11 -5 -16 4 -5 1
-9 -4 -9 -6 0 -10 -3 -9 -8 1 -4 -4 -20 -11 -37 -7 -16 -13 -32 -13 -35 -1 -6
-128 -252 -165 -320 -14 -25 -31 -52 -39 -61 -8 -8 -14 -20 -14 -25 0 -6 -8
-19 -17 -30 -10 -10 -34 -43 -53 -72 -19 -28 -38 -52 -42 -52 -5 0 -8 -6 -8
-12 0 -7 -16 -30 -35 -51 -18 -20 -32 -37 -30 -37 19 0 -282 -301 -375 -375
-41 -33 -77 -62 -80 -65 -46 -51 -422 -299 -442 -292 -5 1 -8 -2 -8 -7 0 -5
-35 -26 -77 -47 -43 -21 -84 -42 -91 -48 -8 -5 -23 -12 -35 -13 -12 -2 -24 -8
-28 -15 -4 -6 -12 -7 -18 -4 -6 4 -14 1 -17 -7 -2 -7 -10 -14 -17 -14 -21 -1
-42 -8 -48 -16 -3 -4 -16 -9 -27 -10 -12 -1 -22 -4 -22 -7 0 -6 -90 -34 -102
-32 -5 1 -8 -3 -8 -10 0 -6 -3 -9 -6 -5 -3 3 -24 -1 -46 -9 -22 -7 -44 -11
-49 -8 -5 3 -9 0 -9 -7 0 -7 -3 -10 -6 -7 -3 4 -20 2 -37 -3 -47 -14 -165 -38
-217 -44 -127 -15 -167 -18 -310 -17 -85 0 -177 2 -205 5 -89 10 -140 17 -155
20 -14 4 -87 16 -120 20 -8 2 -21 6 -27 10 -7 5 -13 6 -13 4 0 -4 -34 3 -92
18 -10 3 -26 7 -35 9 -39 9 -107 37 -121 49 -8 6 -16 11 -16 9 -4 -12 -210
106 -248 141 -8 7 -34 28 -58 47 -90 70 -185 161 -271 263 -30 34 -56 64 -59
67 -21 21 -116 162 -149 222 -61 111 -107 251 -126 383 -20 144 -28 270 -28
470 -1 246 4 311 29 460 4 22 8 47 9 55 10 78 18 138 22 155 3 17 14 891 16
1355 1 214 -15 371 -39 391 -8 6 -14 9 -14 6 0 -3 -11 -48 -26 -99 -14 -51
-27 -100 -29 -108 -2 -8 -17 -73 -35 -145 -18 -71 -33 -137 -35 -145 -2 -8
-36 -152 -75 -320 -39 -168 -74 -316 -76 -330 -3 -14 -20 -90 -39 -170 -18
-80 -38 -170 -44 -200 -11 -55 -16 -79 -26 -122 -8 -36 -43 -229 -50 -278 -4
-25 -9 -54 -11 -65 -8 -38 -44 -296 -49 -348 -3 -28 -8 -70 -10 -92 -3 -22 -8
-69 -11 -105 -10 -92 -10 -420 -1 -515 41 -416 223 -728 652 -1120 49 -44 94
-86 102 -93 7 -7 13 -11 13 -7 0 3 10 -4 23 -16 12 -11 42 -35 67 -52 25 -17
47 -33 50 -36 18 -20 260 -151 280 -151 5 0 10 -5 10 -12 0 -6 3 -8 6 -5 4 4
19 0 33 -7 23 -13 88 -39 101 -42 3 0 12 -3 20 -7 23 -9 114 -39 125 -41 6 -1
16 -5 23 -9 6 -5 12 -6 12 -3 0 3 11 1 25 -4 27 -10 60 -18 114 -25 18 -3 38
-8 43 -11 6 -4 35 -8 66 -11 30 -2 62 -7 71 -11 9 -4 44 -7 78 -7 35 0 63 -2
63 -5 0 -7 343 -4 423 4 31 2 62 8 67 11 6 3 10 0 10 -7 0 -10 2 -10 8 -1 4 7
16 12 27 12 11 0 34 2 50 5 17 3 50 8 73 11 24 3 53 10 63 16 14 7 19 6 19 -2
0 -8 4 -8 13 -1 6 5 26 12 42 15 72 13 230 58 233 67 2 6 8 8 13 4 10 -6 154
44 274 94 108 45 239 106 245 113 3 3 23 14 45 24 22 10 52 27 66 36 14 10 29
16 33 12 3 -3 6 -1 6 5 0 7 7 12 15 12 8 0 15 4 15 9 0 5 14 12 30 16 17 4 28
10 25 14 -2 5 13 17 35 27 22 10 40 22 40 27 0 4 4 7 10 7 10 0 94 55 118 77
7 7 20 13 28 13 8 0 13 4 9 9 -3 5 3 12 12 15 10 3 30 16 45 28 14 13 37 31
50 40 38 28 91 72 116 96 12 12 25 22 27 22 21 0 420 406 434 442 1 5 13 20
25 32 27 30 57 67 76 96 8 12 20 28 25 34 6 6 26 34 45 61 19 28 38 52 43 53
4 2 7 8 7 14 0 5 11 24 25 42 14 18 25 37 25 41 0 5 6 16 14 24 32 36 202 356
245 461 12 30 26 64 31 75 88 190 212 643 244 885 3 25 8 56 11 70 3 14 8 50
10 80 3 30 7 62 10 70 15 51 37 438 37 642 0 123 -10 404 -17 483 -1 17 -6 66
-9 110 -4 44 -9 91 -11 105 -2 14 -7 52 -10 85 -4 33 -13 103 -22 155 -8 52
-16 106 -18 120 -39 301 -207 968 -336 1340 -39 113 -82 243 -96 290 -148 508
-310 967 -449 1278 -13 29 -24 56 -24 59 0 22 -90 155 -129 191 -69 65 -141
89 -216 72z"/>
</g>
</svg>
